<!DOCTYPE svg PUBLIC "-//W3C//DTD SVG 20010904//EN" "http://www.w3.org/TR/2001/REC-SVG-20010904/DTD/svg10.dtd">
<svg version="1.0" xmlns="http://www.w3.org/2000/svg" width="766px" height="1029px" viewBox="0 0 7660 10290" preserveAspectRatio="xMidYMid meet">
<g id="layer101" fill="#ffffff" stroke="none">
 <path d="M1950 10251 c-8 -5 -35 -12 -60 -15 -25 -4 -72 -12 -105 -17 -33 -5 -76 -12 -95 -16 -19 -3 -44 -6 -55 -8 -11 -1 -27 -4 -35 -8 -13 -5 -56 -12 -135 -23 -11 -1 -59 -10 -108 -19 -48 -9 -96 -17 -107 -18 -11 -1 -19 -6 -17 -12 4 -9 -42 -76 -105 -155 -15 -19 -52 -65 -80 -102 -164 -209 -224 -278 -252 -291 -17 -8 -58 -27 -91 -42 -33 -14 -67 -30 -75 -36 -8 -5 -22 -12 -30 -15 -8 -3 -28 -12 -43 -20 -16 -7 -32 -14 -37 -14 -5 0 -56 -23 -115 -51 l-106 -51 -31 -71 c-29 -66 -182 -371 -230 -458 -20 -36 -20 -36 1 -81 19 -43 51 -81 51 -61 0 5 14 25 31 44 17 19 89 121 160 226 122 182 130 192 156 188 98 -17 248 -35 290 -35 l50 0 11 -42 c6 -24 18 -73 27 -110 l17 -67 23 22 c14 14 27 43 33 77 6 30 17 82 26 115 8 33 20 80 26 105 6 25 17 59 25 75 8 17 28 64 45 105 56 135 57 135 122 175 35 21 92 57 128 80 36 23 102 65 148 94 l83 52 97 -5 c53 -3 145 -9 203 -12 l106 -7 45 -61 c25 -33 75 -99 111 -146 l65 -86 6 -89 c3 -50 8 -154 11 -232 l5 -142 -80 -168 c-45 -92 -84 -179 -86 -193 -4 -19 15 -58 72 -155 117 -198 290 -491 404 -685 57 -96 123 -208 147 -249 25 -41 53 -88 63 -105 9 -17 37 -65 62 -106 25 -41 119 -199 208 -350 90 -151 220 -372 290 -490 70 -118 133 -225 139 -238 8 -15 18 -21 27 -18 22 8 15 -83 -7 -97 -18 -11 -8 -17 -414 238 -126 80 -233 145 -237 145 -25 0 -6 -19 175 -180 21 -19 60 -55 86 -80 26 -25 81 -74 121 -110 40 -36 95 -87 123 -113 27 -27 60 -55 73 -64 13 -8 28 -29 32 -47 5 -20 15 -32 28 -34 13 -2 26 -16 34 -37 8 -19 17 -35 22 -35 4 0 8 -7 8 -15 0 -8 5 -15 10 -15 6 0 10 -6 10 -13 0 -8 11 -27 25 -43 14 -16 25 -37 25 -46 0 -10 4 -18 8 -18 4 0 13 -12 19 -27 12 -27 33 -63 43 -73 10 -10 30 -46 46 -82 9 -21 20 -38 25 -38 5 0 9 -7 9 -15 0 -8 5 -15 10 -15 6 0 10 -8 10 -18 0 -10 8 -27 18 -38 9 -11 26 -36 36 -57 11 -20 23 -37 28 -37 4 0 8 -9 8 -20 0 -11 5 -20 10 -20 6 0 10 -7 10 -15 0 -8 5 -15 10 -15 6 0 10 -9 10 -20 0 -11 4 -20 9 -20 5 0 11 -8 14 -17 9 -27 40 -77 55 -86 6 -4 12 -17 12 -27 0 -11 5 -20 10 -20 6 0 10 -7 10 -15 0 -8 5 -15 10 -15 6 0 10 -8 10 -18 0 -10 8 -27 18 -38 9 -10 24 -32 32 -49 8 -16 21 -34 27 -38 7 -4 13 -16 13 -27 0 -10 3 -20 8 -22 4 -1 18 -24 32 -50 13 -27 27 -48 30 -48 4 0 12 -16 20 -35 8 -19 17 -35 21 -35 4 0 10 -11 13 -25 4 -14 11 -25 16 -25 6 0 10 -7 10 -15 0 -8 5 -15 10 -15 6 0 10 -9 10 -20 0 -11 5 -20 10 -20 6 0 10 -7 10 -15 0 -14 32 -21 85 -17 11 1 37 2 58 3 20 1 40 5 43 10 3 5 9 7 14 4 4 -3 52 0 107 6 54 5 130 12 168 15 39 3 94 9 124 13 67 10 269 5 285 -8 6 -5 86 -14 179 -21 92 -7 167 -16 167 -20 0 -4 46 -10 103 -14 177 -12 205 -17 233 -42 14 -13 29 -24 34 -24 5 0 14 -9 20 -20 6 -11 17 -20 25 -20 8 0 15 -7 15 -15 0 -8 4 -15 10 -15 5 0 25 -16 44 -35 20 -19 40 -35 46 -35 5 0 10 -7 10 -15 0 -8 4 -15 8 -15 5 0 35 -25 67 -55 32 -30 60 -55 63 -55 2 0 19 -16 38 -35 18 -19 35 -35 38 -35 3 0 24 -17 45 -37 84 -81 131 -123 138 -123 4 0 34 -28 68 -62 33 -35 77 -76 96 -93 19 -16 42 -45 50 -63 7 -17 17 -32 20 -32 4 0 12 -12 18 -27 7 -16 25 -50 41 -78 17 -27 33 -57 36 -65 11 -28 29 -65 34 -70 3 -3 14 -24 25 -47 11 -24 23 -43 28 -43 4 0 7 -7 7 -15 0 -8 5 -15 10 -15 6 0 10 -9 10 -20 0 -11 5 -20 10 -20 6 0 10 -9 10 -19 0 -11 7 -26 15 -35 8 -8 15 -19 15 -25 0 -6 5 -11 10 -11 6 0 10 -7 10 -16 0 -8 7 -22 15 -30 8 -9 15 -24 15 -35 0 -10 5 -19 10 -19 6 0 10 -7 10 -15 0 -8 3 -15 8 -15 4 0 16 -20 27 -45 11 -25 23 -45 28 -45 4 0 7 -9 7 -19 0 -11 3 -21 8 -23 4 -1 16 -21 27 -43 11 -22 23 -43 28 -46 4 -3 16 -83 27 -178 11 -95 23 -177 26 -182 5 -9 11 -52 19 -136 2 -23 8 -66 14 -95 26 -134 36 -207 35 -258 0 -100 -16 -264 -30 -321 -8 -31 -14 -85 -14 -120 0 -35 -4 -70 -9 -78 -5 -7 -117 -124 -249 -260 -132 -135 -312 -319 -399 -408 l-158 -162 -95 -25 c-89 -22 -130 -32 -370 -86 -230 -52 -268 -61 -320 -75 -30 -8 -118 -28 -195 -46 -77 -17 -160 -37 -184 -45 -25 -8 -54 -14 -65 -14 -11 0 -92 -18 -181 -39 -88 -21 -187 -44 -220 -51 -33 -7 -80 -18 -105 -26 -25 -8 -90 -23 -145 -34 -55 -12 -116 -25 -135 -30 -116 -31 -292 -70 -337 -76 -29 -4 -50 -10 -48 -15 5 -8 28 -7 205 6 142 10 195 14 285 20 50 3 128 7 175 10 214 13 253 16 380 25 74 5 171 12 215 15 203 12 269 16 390 25 72 6 176 12 232 14 107 4 108 4 163 46 39 30 172 127 238 174 24 17 58 43 77 59 18 15 36 27 40 27 4 0 22 12 40 28 18 15 61 47 96 72 122 87 274 198 305 224 18 14 35 26 40 26 4 0 19 10 33 23 38 35 210 157 220 157 18 0 48 50 55 91 6 39 27 98 61 174 7 17 20 50 28 75 9 25 28 77 42 115 15 39 36 95 47 125 11 30 26 69 34 87 8 17 14 34 14 38 0 4 6 21 14 38 18 42 57 144 91 237 15 41 33 89 40 105 7 17 18 46 25 65 20 56 52 142 65 175 7 17 16 41 20 55 4 14 12 30 16 36 6 7 -1 49 -17 110 -14 55 -34 131 -44 169 -10 39 -32 124 -50 190 -18 66 -36 136 -41 155 -10 46 -165 626 -185 698 -4 13 -2 22 5 22 6 0 -11 24 -38 53 -69 74 -173 188 -266 292 -44 49 -97 107 -117 129 -21 21 -52 55 -69 75 -68 78 -176 197 -214 236 -22 22 -85 92 -140 155 -55 63 -112 127 -127 143 -16 16 -28 34 -28 42 0 14 -30 25 -73 25 -15 0 -35 4 -45 9 -9 5 -53 17 -97 26 -44 10 -87 20 -95 23 -8 3 -24 7 -35 8 -52 8 -91 17 -100 24 -5 5 -36 11 -68 15 -31 4 -60 11 -63 16 -3 5 -18 9 -33 9 -15 0 -31 3 -35 8 -4 4 -17 8 -29 9 -35 3 -80 14 -103 24 -11 6 -24 9 -30 8 -9 -2 -46 5 -99 20 -16 5 -75 19 -130 31 -55 12 -107 26 -116 30 -9 5 -41 11 -73 15 -31 4 -58 11 -61 15 -3 5 -32 11 -65 15 -33 4 -63 11 -66 16 -3 5 -18 9 -35 9 -16 0 -29 5 -29 11 0 7 -11 8 -29 4 -17 -3 -32 -2 -36 4 -3 6 -17 11 -30 11 -13 0 -27 5 -30 11 -4 6 -19 9 -34 7 -21 -2 -38 10 -84 57 -31 32 -57 63 -57 67 0 4 -7 8 -15 8 -8 0 -15 4 -15 8 0 5 -103 113 -229 241 -126 127 -252 256 -280 286 -29 30 -55 55 -59 55 -14 0 -54 69 -101 176 -26 60 -60 136 -75 169 -15 33 -32 69 -36 80 -5 11 -32 112 -59 225 -105 433 -98 408 -105 375 -4 -16 -11 -38 -17 -47 -5 -10 -9 -30 -9 -45 0 -39 -11 -73 -22 -73 -5 0 -14 12 -21 28 -7 15 -25 47 -42 72 -16 25 -38 61 -49 81 -45 80 -111 188 -141 234 -11 16 -28 46 -38 65 -10 19 -28 51 -40 71 -12 20 -37 63 -56 95 -19 33 -61 103 -93 157 -33 54 -65 108 -72 120 -6 12 -64 110 -127 217 -64 107 -123 209 -131 225 -8 17 -47 84 -85 151 -117 201 -112 180 -118 457 -3 133 -8 312 -10 397 -3 85 -7 261 -10 390 l-5 235 -28 23 c-15 13 -46 42 -70 63 -24 22 -82 75 -130 117 -48 42 -94 84 -102 93 -30 32 -137 119 -146 119 -5 0 -16 -4 -24 -9z"/>
 <path d="M854 8770 c8 -47 18 -60 78 -101 33 -22 61 -39 63 -37 1 2 -31 39 -72 83 -57 61 -73 74 -69 55z"/>
 <path d="M110 8606 c18 -48 229 -433 244 -446 8 -6 93 -49 188 -94 95 -46 239 -115 320 -155 80 -39 152 -69 160 -66 18 7 274 -229 298 -274 15 -31 120 -269 390 -886 31 -71 89 -204 129 -295 83 -190 131 -282 149 -288 10 -3 9 4 -2 30 -42 98 -66 161 -66 175 0 8 -6 27 -14 41 -7 15 -32 83 -54 152 -23 69 -55 163 -72 210 -17 47 -46 130 -65 185 -19 55 -48 138 -65 185 -17 47 -42 117 -56 155 -14 39 -29 84 -33 100 -4 17 -28 75 -52 129 l-44 99 -150 127 c-295 249 -305 257 -359 273 -28 9 -112 35 -186 58 -74 23 -154 46 -178 52 -47 12 -49 14 -340 377 -153 191 -157 195 -142 156z"/>
 <path d="M2606 6473 c-3 -26 -6 -60 -6 -75 0 -15 -4 -29 -10 -33 -5 -3 -10 -21 -10 -39 0 -17 -4 -36 -9 -41 -5 -6 -11 -28 -14 -50 -2 -22 -8 -51 -11 -65 -4 -14 -9 -47 -13 -73 -3 -26 -10 -50 -14 -53 -5 -3 -9 -16 -9 -30 0 -48 -29 -40 -99 30 -36 36 -70 66 -74 66 -5 0 -36 -22 -70 -50 -134 -107 -191 -150 -199 -150 -5 0 -28 -13 -51 -30 -75 -53 -83 -60 -71 -68 6 -4 73 -131 149 -282 76 -151 144 -286 151 -300 7 -14 20 -52 29 -85 29 -105 53 -188 74 -260 36 -117 47 -157 70 -240 12 -44 33 -114 45 -155 13 -41 29 -93 35 -115 6 -22 19 -70 30 -106 19 -65 19 -70 1 -270 -10 -112 -18 -242 -19 -289 0 -47 -2 -103 -5 -125 -11 -88 -25 -284 -25 -350 0 -38 -5 -123 -11 -189 -7 -77 -7 -123 -1 -130 6 -7 10 -21 9 -31 -1 -28 12 -187 17 -205 2 -8 7 -58 10 -110 13 -193 21 -301 29 -361 3 -24 8 -82 11 -129 4 -47 8 -103 10 -125 2 -22 6 -71 9 -110 4 -38 8 -92 11 -120 8 -94 16 -190 20 -249 9 -134 17 -169 51 -218 19 -26 34 -51 34 -55 0 -3 6 -14 14 -22 8 -9 23 -32 34 -51 16 -29 70 -118 125 -204 30 -48 146 -236 177 -288 40 -67 10 -47 525 -361 99 -60 220 -136 269 -168 143 -94 135 -80 -53 91 -45 41 -104 95 -130 120 -26 25 -93 87 -149 139 -56 51 -124 114 -151 140 -56 53 -232 217 -276 256 -116 105 -144 138 -161 188 -9 29 -34 94 -55 146 -22 51 -39 97 -39 102 0 8 -20 62 -140 369 l-52 135 -4 300 c-13 1172 -14 1256 -3 1307 5 29 14 62 19 73 4 11 13 40 20 65 6 25 18 72 27 105 10 38 16 104 16 180 1 193 -14 526 -24 544 -5 9 -20 43 -35 76 -42 97 -183 422 -226 520 -21 50 -64 153 -94 230 -96 246 -186 478 -206 535 -11 30 -25 65 -31 77 -6 13 -8 26 -4 29 10 10 259 94 279 94 10 0 26 -4 36 -9 51 -28 213 -91 232 -91 3 0 6 80 7 178 0 97 3 251 5 341 2 117 0 165 -8 168 -8 2 -14 -14 -18 -44z"/>
 </g>

</svg>